# xmcd
#
# Track frame offsets: 
#        150
#        18667
#        39262
#        59854
#        82256
#        107955
#        125732
#        148021
#        174855
#        192513
#        221611
#        243199
#
# Disc length: 3483 seconds
#
# Revision: 0
# Processed by: cddbd v1.5.2PL0 Copyright (c) Steve Scherf et al.
# Submitted via: ExactAudioCopy v1.0b4
#
DISCID=b60d990c
DTITLE=Linwood Taylor Band - Make Room for the Paying Customer
DYEAR=2000
DGENRE=Blues
TTITLE0=Black Cat Bone
TTITLE1=Psychic
TTITLE2=Can't Get a Woman
TTITLE3=Boogie Man
TTITLE4=Same Thing
TTITLE5=Charm City Pt.2
TTITLE6=Mercy
TTITLE7=Good Morning Little Schoolgirl
TTITLE8=Don't Burn Down the Bridge
TTITLE9=Don't Dis Me
TTITLE10=Blues Man
TTITLE11=G Thang
EXTD=
EXTT0=
EXTT1=
EXTT2=
EXTT3=
EXTT4=
EXTT5=
EXTT6=
EXTT7=
EXTT8=
EXTT9=
EXTT10=
EXTT11=
PLAYORDER=
